<svg xmlns="http://www.w3.org/2000/svg" xmlns:xlink="http://www.w3.org/1999/xlink" viewBox="0 0 144 185.2"><defs><style>.cls-1{isolation:isolate;}.cls-2{fill:url(#linear-gradient);}.cls-3,.cls-5{mix-blend-mode:soft-light;}.cls-4{fill:url(#linear-gradient-2);}.cls-6{fill:#999;}.cls-7{fill:#fc0;}</style><linearGradient id="linear-gradient" x1="101.46" y1="120.76" x2="-115.12" y2="136.89" gradientUnits="userSpaceOnUse"><stop offset="0" stop-color="gray"/><stop offset="0.52" stop-color="#e6e6e6"/></linearGradient><linearGradient id="linear-gradient-2" x1="72" y1="86.37" x2="72" y2="-26.67" gradientUnits="userSpaceOnUse"><stop offset="0" stop-color="#edc3a6"/><stop offset="0" stop-color="#eec5a9"/><stop offset="0" stop-color="gray"/><stop offset="0.52" stop-color="#e6e6e6"/></linearGradient></defs><title>motor</title><g class="cls-1"><g id="Layer_2" data-name="Layer 2"><g id="man"><g id="Motor"><g id="Motor-2" data-name="Motor"><path class="cls-2" d="M75.56,68.58c-1.19,2.71-2.33,5.36-3.41,7.93-1,2.3-1.89,4.56-2.77,6.75-20.51,51.28-36.24,73.66-21.16,82.26a6.81,6.81,0,0,1,3.44,5.88v.22A13.48,13.48,0,0,1,38.18,185.2H15.28a6.84,6.84,0,0,1-6.76-5.83,5.73,5.73,0,0,1-.08-1l19-110.09c0-3.78,3.06-.58,6.84-.58H61l.77,0c.18,0,.39,0,.59-.06C67.9,67,77.34,64.54,75.56,68.58Z"/><path class="cls-3" d="M75.56,68.58c-1.19,2.71-2.33,5.36-3.41,7.93-1,2.3-1.89,4.56-2.77,6.75-20.51,51.28-36.24,73.66-21.16,82.26a6.81,6.81,0,0,1,3.44,5.88v.22A13.48,13.48,0,0,1,38.18,185.2H15.28a6.84,6.84,0,0,1-6.76-5.83,7.43,7.43,0,0,1,1.33-.51c2.31-.61,4.75-.23,7.11.13,3.73.57,24,6.22,25.46-2.43,1.16-6.91-7.35-13.9-9.7-18.47C26.48,146,44.41,131.68,46.25,118.16s6.44-26.5,11.06-39.34c.16-.44.32-.87.49-1.3l-2.12-.07a167,167,0,0,1-23.92-2.64c-1.44-.26-2.89-.56-4.32-.94v-5.6c0-3.78,3.06-.58,6.84-.58H61l.77,0c.18,0,.39,0,.59-.06C67.9,67,77.34,64.54,75.56,68.58Z"/><path class="cls-4" d="M144,51a17.74,17.74,0,0,1-17.67,17.81H17.67a17.47,17.47,0,0,1-9.94-3.09A17.8,17.8,0,0,1,0,51L4,15.9c1.35-23.18,92.18-22.26,127.32,11,.3.29.61.58.9.88C138.71,34.21,143,41.94,144,51Z"/><g class="cls-5"><path d="M144,51a17.74,17.74,0,0,1-17.67,17.81H17.67a17.47,17.47,0,0,1-9.94-3.09L113.16,59.3c5.35-.33,11-.76,15.38-3.85a15,15,0,0,0,4.69-18.15c-1.11-2.3-2.9-4.62-2.42-7.14a4.23,4.23,0,0,1,1.41-2.39C138.71,34.21,143,41.94,144,51Z"/></g><path class="cls-6" d="M27.43,47a6.3,6.3,0,1,1,0-.11A.41.41,0,0,1,27.43,47Z"/><path class="cls-6" d="M104.44,33.38a3.66,3.66,0,0,1,.07.8,5.24,5.24,0,0,1-4.36,5.27l-20.1,3.41a5.25,5.25,0,0,1-6-4c0-.11,0-.21-.07-.33l-.35-2.09a5.67,5.67,0,0,1,0-1.84,5.26,5.26,0,0,1,4.27-4.23L98.05,27a5.25,5.25,0,0,1,6,4.33Z"/><g class="cls-5"><path d="M27.43,47a5.71,5.71,0,0,1-11,2.18,2.14,2.14,0,0,1,.63.13c.7.26,1.31.73,2,1a5,5,0,0,0,4.37-.17,5,5,0,0,0,2.48-3.59l0-.62a4.86,4.86,0,0,1,1.55.92A.41.41,0,0,1,27.43,47Z"/></g><path class="cls-6" d="M76.57,39.94l-1.94.33L20.23,49.5l-.13-.8-.5-2.94a2,2,0,0,1,1.61-2.26l52.46-8.9h0a2,2,0,0,1,2.27,1.61l.38,2.26Z"/><path class="cls-3" d="M104.51,34.18a5.24,5.24,0,0,1-4.36,5.27l-20.1,3.41a5.2,5.2,0,0,1-5.42-2.59L20.23,49.5l-.13-.8a2.31,2.31,0,0,1,.45-.32,8.55,8.55,0,0,1,2.94-.87l50.59-8.65a7.28,7.28,0,0,1,2.24-.39,38.13,38.13,0,0,0,24.73-4.22A5,5,0,0,1,104.51,34.18Z"/><g id="JS_Logo" data-name="JS Logo"><rect class="cls-7" x="13.32" y="10.5" width="27.68" height="27.14" rx="3.48" transform="translate(54.32 48.14) rotate(180)"/><path d="M30.69,33c-2.29,0-3.33-1.62-3.33-3.57V22.69h2.35v6.59c0,1.35.45,1.77,1.29,1.77a1.69,1.69,0,0,0,1.45-1L34,31.2A3.53,3.53,0,0,1,30.69,33Z"/><path d="M21.8,33c-2.47,0-3.91-1.47-3.91-3.15A2.81,2.81,0,0,1,20,27.12l1.32-.52c.91-.36,1.59-.58,1.59-1.21s-.52-.91-1.33-.91a3.43,3.43,0,0,0-2.15.8L18.2,23.83a4.83,4.83,0,0,1,3.33-1.33c2.16,0,3.7,1.34,3.7,3a3,3,0,0,1-2.1,2.77l-1.34.56c-.91.37-1.5.57-1.5,1.21s.48,1,1.46,1A4.19,4.19,0,0,0,24.3,30l1.34,1.58A5.77,5.77,0,0,1,21.8,33Z"/></g></g></g></g></g></g></svg>