<svg xmlns="http://www.w3.org/2000/svg" xmlns:xlink="http://www.w3.org/1999/xlink" viewBox="0 0 75.22 136.57"><defs><style>.cls-1{isolation:isolate;}.cls-2{fill:#edc3a6;}.cls-3,.cls-6{mix-blend-mode:soft-light;}.cls-4{fill:url(#linear-gradient);}.cls-5{fill:#0078c1;}</style><linearGradient id="linear-gradient" x1="79.06" y1="93.17" x2="-44.79" y2="-159.39" gradientUnits="userSpaceOnUse"><stop offset="0" stop-color="#f0f0f0"/><stop offset="1" stop-color="#fff"/></linearGradient></defs><title>l-upper-arm</title><g class="cls-1"><g id="Layer_2" data-name="Layer 2"><g id="man"><g id="L_arm" data-name="L arm"><g id="L_upper_arm" data-name="L upper arm"><path class="cls-2" d="M31.23,136.54c-17.49.79-40.67-14.21-27.2-30.81,3.47-4.28,9.38-8.67,18.45-12.92-4.05-6.52-1.25-51.27,2.63-55.55a.64.64,0,0,0,.12-.72s1.15-1,3.11-2.58c1.33-1.05,3-2.34,5-3.72A75.37,75.37,0,0,1,48,22q.42-.18.84-.33a36.63,36.63,0,0,1,5.35-1.61,23.8,23.8,0,0,1,5.1-.57l.81,0,.34,0A13.81,13.81,0,0,1,71,25.18a13.91,13.91,0,0,1,.92,1.31c.28.45.56.93.82,1.43.13.25.27.51.39.78q.42.86.78,1.8c.21.56.41,1.13.61,1.74a3.69,3.69,0,0,1,.24.8C77.23,73.54,71.23,133.54,31.23,136.54Z"/><path class="cls-3" d="M31.23,136.54c-17.49.79-40.67-14.21-27.2-30.81q4.85,2.37,9.8,4.48c7.72,3.31,17.11,6,24.08,1.36,6.54-4.39,7.91-13.26,8.69-21.1,1.72-17.36,1.91-34.57,3.63-51.93.06-.6,1.66-1.34,1.72-1.94l-1.31.92c.47-1.38,1-2.79,1.5-4.19s1.09-2.86,1.71-4.26A44.65,44.65,0,0,1,59,19.9c.1-.13.19-.26.29-.38a24.12,24.12,0,0,1,4.85-4.78h0a17.9,17.9,0,0,1,2-1.28c.13.18.26.36.38.55.24.35.47.71.7,1.07l.18.29c.37.59.73,1.19,1.07,1.81a63.08,63.08,0,0,1,3.21,6.48c.17.38.33.77.49,1.16.34.83.67,1.67,1,2.54.14.39.29.79.43,1.19.39,1.13.78,2.3,1.14,3.5l-.24.2a3.69,3.69,0,0,1,.24.8C77.23,73.54,71.23,133.54,31.23,136.54Z"/><path class="cls-4" d="M74.73,32l-.24.2C72.39,34,68.61,35.34,64,36.42a97,97,0,0,1-12.26,2q-.92.1-1.83.18l-.21,0c-10.6.92-21.11.51-24.62-1.34a2.71,2.71,0,0,1-.38-.22c0-1.17,0-2.32,0-3.44,0-.53,0-1,.06-1.55,0-.84.09-1.66.16-2.46,0-.52.09-1,.14-1.53a57.49,57.49,0,0,1,1-6.54c.13-.62.28-1.23.43-1.83.21-.83.43-1.63.68-2.4.17-.54.35-1.07.53-1.58a33.59,33.59,0,0,1,2.76-6q.56-.91,1.14-1.74a23.63,23.63,0,0,1,1.59-2q.73-.82,1.5-1.53a17.36,17.36,0,0,1,4.78-3.17h0q.36-.17.72-.3a16.56,16.56,0,0,1,13.21.86,21.77,21.77,0,0,1,3.33,1.92q.36.24.72.51a29.58,29.58,0,0,1,3.06,2.57,38.45,38.45,0,0,1,4.37,5c.4.53.79,1.07,1.16,1.64.13.18.26.36.38.55.24.35.47.71.7,1.07l.18.29c.37.59.73,1.19,1.07,1.81a63.08,63.08,0,0,1,3.21,6.48c.17.38.33.77.49,1.16.34.83.67,1.67,1,2.54.14.39.29.79.43,1.19C74,29.67,74.37,30.84,74.73,32Z"/><path class="cls-5" d="M73.59,28.54l-.49.16a120,120,0,0,1-21,4.63c-.7.1-1.4.18-2.1.26l-.38,0c-1.35.15-2.72.27-4.08.37-2.81.21-5.6.31-8.35.31q-4.51,0-8.89-.36c-1.2-.1-2.4-.22-3.58-.36,0-.53,0-1,.06-1.55,0-.84.09-1.66.16-2.46q4.11.5,8.34.65a106.83,106.83,0,0,0,12-.22c1.33-.1,2.66-.22,4-.37s2.39-.27,3.58-.43l1-.15A115,115,0,0,0,71,25.18l1.2-.37c.34.83.67,1.67,1,2.54C73.3,27.74,73.45,28.14,73.59,28.54Z"/><path class="cls-5" d="M68.47,17.17c-2.64.91-5.32,1.72-8,2.39a4.56,4.56,0,0,1-.53.13L59,19.9a88.86,88.86,0,0,1-10.16,1.8l-.88.11a89.22,89.22,0,0,1-9.82.54,85.9,85.9,0,0,1-12-.83c.13-.62.28-1.23.43-1.83.21-.83.43-1.63.68-2.4a87.62,87.62,0,0,0,19.72.6,85.14,85.14,0,0,0,17.14-3.15h0c.79-.23,1.59-.47,2.38-.73.24.35.47.71.7,1.07l.18.29C67.77,16,68.13,16.55,68.47,17.17Z"/><path class="cls-5" d="M60.61,6.85a67.42,67.42,0,0,1-21.32,3.47,67.62,67.62,0,0,1-8.74-.57q.56-.91,1.14-1.74a23.63,23.63,0,0,1,1.59-2A63.52,63.52,0,0,0,56.83,3.77q.36.24.72.51A29.58,29.58,0,0,1,60.61,6.85Z"/><g class="cls-6"><path d="M74.73,32l-.24.2C72.39,34,68.61,35.34,64,36.42a97,97,0,0,1-12.26,2q-.92.1-1.83.18l-.21,0a44.18,44.18,0,0,0-.07-5c-.08-1.27-.21-2.61-.38-4-.3-2.44-.73-5-1.3-7.62,0-.07,0-.14,0-.22-.29-1.31-.61-2.62-1-3.92a70.71,70.71,0,0,0-2.56-7.77c-.55-1.39-1.15-2.72-1.78-3.95a27.61,27.61,0,0,0-3.07-4.88q.36-.17.72-.3a16.56,16.56,0,0,1,13.21.86,21.77,21.77,0,0,1,3.33,1.92q.36.24.72.51a29.58,29.58,0,0,1,3.06,2.57,38.45,38.45,0,0,1,4.37,5c.4.53.79,1.07,1.16,1.64.13.18.26.36.38.55.24.35.47.71.7,1.07l.18.29c.37.59.73,1.19,1.07,1.81a63.08,63.08,0,0,1,3.21,6.48c.17.38.33.77.49,1.16.34.83.67,1.67,1,2.54.14.39.29.79.43,1.19C74,29.67,74.37,30.84,74.73,32Z"/></g></g></g></g></g></g></svg>