<svg xmlns="http://www.w3.org/2000/svg" viewBox="0 0 102.34 106.38"><defs><style>.cls-1{fill:#999;}</style></defs><title>laptop</title><g id="Layer_2" data-name="Layer 2"><g id="man"><g id="Laptop"><rect id="Laptop-top" class="cls-1" x="5.3" y="-0.31" width="2.37" height="92.44" rx="1.18" transform="translate(-5.36 1.08) rotate(-6.76)"/><g id="Laptop-bttom"><rect class="cls-1" x="10.45" y="95.99" width="92.44" height="3.39" rx="1.7" transform="translate(16.05 -7.69) rotate(9.04)"/><rect class="cls-1" x="17.77" y="88.89" width="6.87" height="1.49" rx="0.74" transform="translate(14.34 -2.22) rotate(9.04)"/><rect class="cls-1" x="26.13" y="90.22" width="6.87" height="1.49" rx="0.74" transform="translate(14.65 -3.51) rotate(9.04)"/><rect class="cls-1" x="34.49" y="91.55" width="6.87" height="1.49" rx="0.74" transform="translate(14.97 -4.81) rotate(9.04)"/><rect class="cls-1" x="42.85" y="92.88" width="6.87" height="1.49" rx="0.74" transform="translate(15.28 -6.11) rotate(9.04)"/><rect class="cls-1" x="51.21" y="94.21" width="6.87" height="1.49" rx="0.74" transform="translate(15.59 -7.4) rotate(9.04)"/><rect class="cls-1" x="59.57" y="95.54" width="6.87" height="1.49" rx="0.74" transform="translate(15.9 -8.7) rotate(9.04)"/></g></g></g></g></svg>