<svg xmlns="http://www.w3.org/2000/svg" xmlns:xlink="http://www.w3.org/1999/xlink" viewBox="0 0 402.13 262.36"><defs><style>.cls-1{isolation:isolate;}.cls-2{fill:#301709;}.cls-3{fill:#edc3a6;}.cls-4{opacity:0.25;}.cls-5,.cls-9{mix-blend-mode:soft-light;}.cls-6{fill:#eab88c;}.cls-7{fill:url(#linear-gradient);}.cls-8{fill:#42210b;}.cls-9{opacity:0.23;}.cls-10{mix-blend-mode:color-burn;}.cls-11{fill:#e44d26;}.cls-12{fill:#fff;}</style><linearGradient id="linear-gradient" x1="355.74" y1="198.4" x2="311.79" y2="125.14" gradientUnits="userSpaceOnUse"><stop offset="0" stop-color="#d6262a"/><stop offset="1" stop-color="#ee2b2f"/></linearGradient></defs><title>legs-and-boat</title><g class="cls-1"><g id="Layer_2" data-name="Layer 2"><g id="man"><g id="Legs_and_Boat" data-name="Legs and Boat"><path id="back_boat" data-name="back boat" class="cls-2" d="M401,144.5c4-14-314.13-41.72-401-30,47.87,26.28,100,62,236,59H397Z"/><g id="R_lower_leg" data-name="R lower leg"><path class="cls-3" d="M215.25,187.5H177.39c-9.3-43.42-37.78-165.11-6.41-184,8.35,17.16,19.88,37.14,30.73,55,5.95,9.78,11.7,18.91,16.61,26.58C211,106.25,198.26,153.55,215.25,187.5Z"/><g class="cls-4"><path d="M184.38,153.35l1.86.37a.37.37,0,1,0,.2-.72l-1.86-.37a.37.37,0,0,0-.2.72Z"/><path d="M183.54,149.64h2.05a.38.38,0,0,0,.38-.37.39.39,0,0,0-.38-.38h-2.05a.38.38,0,0,0,0,.75Z"/><path d="M182.8,139.37a22.46,22.46,0,0,0,6.07-.32c.47-.09.27-.81-.2-.72a21.79,21.79,0,0,1-5.87.29c-.48,0-.48.71,0,.75Z"/><path d="M185,128.94a4.38,4.38,0,0,1-2.77-.53.38.38,0,0,0-.38.65,5,5,0,0,0,3.15.63.39.39,0,0,0,.38-.37.37.37,0,0,0-.38-.38Z"/><path d="M178.14,136.41a.38.38,0,0,0,0-.75.38.38,0,0,0,0,.75Z"/><path d="M174.26,126.23l-.81-4.08c-.09-.48-.82-.28-.72.19l.8,4.09c.1.48.82.28.73-.2Z"/><path d="M177,116.09v-3.17a.38.38,0,0,0-.75,0v3.17a.38.38,0,0,0,.75,0Z"/><path d="M198.67,135.62a24.19,24.19,0,0,0,4.12,3.84.38.38,0,0,0,.51-.13.39.39,0,0,0-.14-.52,24.06,24.06,0,0,1-4-3.72.37.37,0,0,0-.53,0,.39.39,0,0,0,0,.53Z"/><path d="M203.11,147.22V150a.38.38,0,0,0,.75,0v-2.79a.38.38,0,0,0-.75,0Z"/><path d="M194.54,147v.56a.36.36,0,0,0,.11.26.33.33,0,0,0,.26.11.35.35,0,0,0,.27-.11.36.36,0,0,0,.11-.26V147a.39.39,0,0,0-.11-.27.37.37,0,0,0-.53,0,.4.4,0,0,0-.11.27Z"/><path d="M189.14,145.91a.38.38,0,0,0,0-.75.38.38,0,0,0,0,.75Z"/><path d="M175.72,144.42H174a.38.38,0,0,0-.38.37.39.39,0,0,0,.38.38h1.68a.38.38,0,0,0,0-.75Z"/><path d="M177,157.28a1.56,1.56,0,0,1-.37,0s0,0,0,0h-.13l-.19-.05a2,2,0,0,1-.35-.11h0a.2.2,0,0,1-.08,0,.76.76,0,0,1-.18-.09.38.38,0,0,0-.51.14.37.37,0,0,0,.13.51A3.29,3.29,0,0,0,177,158a.38.38,0,0,0,.38-.37.39.39,0,0,0-.38-.38Z"/><path d="M184.38,171.21a32.5,32.5,0,0,0,2.24,5.43c.22.43.87.05.65-.38A31.21,31.21,0,0,1,185.1,171c-.14-.46-.87-.27-.72.2Z"/><path d="M179.26,174.61v3.92a.38.38,0,0,0,.75,0v-3.92a.38.38,0,0,0-.75,0Z"/><path d="M187.3,160.71a11,11,0,0,0,3.7.89.38.38,0,0,0,0-.75,9.83,9.83,0,0,1-3.33-.79.39.39,0,0,0-.51.14.37.37,0,0,0,.14.51Z"/><path d="M182.24,163.06h-.37a.21.21,0,0,0-.15,0,.28.28,0,0,0-.12.08.25.25,0,0,0-.08.12.32.32,0,0,0,0,.14l0,.1a.4.4,0,0,0,.09.17.44.44,0,0,0,.27.11h.37a.23.23,0,0,0,.14,0,.24.24,0,0,0,.12-.07.26.26,0,0,0,.08-.13.17.17,0,0,0,0-.14v-.1a.34.34,0,0,0-.1-.16.36.36,0,0,0-.26-.11Z"/><path d="M195.65,175.69a12.25,12.25,0,0,1,2.54,1.79.37.37,0,0,0,.53-.53A13.11,13.11,0,0,0,196,175a.37.37,0,0,0-.51.13.39.39,0,0,0,.13.52Z"/><path d="M195.66,169.4h2.42a.38.38,0,1,0,0-.75h-2.42a.38.38,0,0,0-.38.37.39.39,0,0,0,.38.38Z"/><path d="M197.15,157.66H199a.38.38,0,1,0,0-.75h-1.86a.38.38,0,0,0-.38.37.39.39,0,0,0,.38.38Z"/><path d="M194.91,155.05a.38.38,0,0,0,0-.75.38.38,0,0,0,0,.75Z"/><path d="M195.47,127.27a4.6,4.6,0,0,1,0-.83s0-.12,0,0,0-.07,0-.11,0-.13,0-.2a2.77,2.77,0,0,1,.12-.41.39.39,0,0,0-.26-.47.4.4,0,0,0-.47.27,4.25,4.25,0,0,0-.2,1.77.5.5,0,0,0,.11.27.46.46,0,0,0,.27.11c.18,0,.4-.17.37-.38Z"/><path d="M205.91,184.87a.38.38,0,0,0,0-.75.38.38,0,0,0,0,.75Z"/><path d="M205,184.12h-1.87a.38.38,0,0,0-.37.37.38.38,0,0,0,.37.38H205a.38.38,0,0,0,.37-.38.38.38,0,0,0-.37-.37Z"/><path d="M203.67,170.89v.74a.39.39,0,0,0,.11.27.37.37,0,0,0,.53,0,.4.4,0,0,0,.11-.27v-.74a.39.39,0,0,0-.11-.27.41.41,0,0,0-.26-.11.39.39,0,0,0-.27.11.37.37,0,0,0-.11.27Z"/><path d="M203.86,163.81a.38.38,0,0,0,0-.75.38.38,0,0,0,0,.75Z"/><path d="M188,182.82a.38.38,0,0,0,0-.75.38.38,0,0,0,0,.75Z"/><path d="M173.47,107.69a44.8,44.8,0,0,1,1.29-4.84c.15-.46-.57-.66-.72-.2a40.61,40.61,0,0,0-1.29,4.84c-.1.47.62.67.72.2Z"/><path d="M170.63,133.51l-.23.45a.33.33,0,0,0,0,.14.26.26,0,0,0,0,.15.31.31,0,0,0,.06.13.24.24,0,0,0,.11.09.37.37,0,0,0,.29,0,.34.34,0,0,0,.22-.17l.23-.45a.23.23,0,0,0,0-.14.26.26,0,0,0,0-.15.33.33,0,0,0-.07-.13.28.28,0,0,0-.1-.09.38.38,0,0,0-.29,0,.44.44,0,0,0-.23.17Z"/><path d="M182.69,117.26a20.42,20.42,0,0,0,.11,3.75.38.38,0,1,0,.75,0,20.42,20.42,0,0,1-.11-3.75c0-.48-.72-.48-.75,0Z"/></g><g class="cls-5"><path d="M215.25,187.5H195.32a63.71,63.71,0,0,1-1.18-7.1l-7.23-58.52c-1.43-11.55-2.86-23.27-1.07-34.77C187.55,76,192.68,65,201.71,58.47c5.95,9.78,11.7,18.91,16.61,26.58C211,106.25,198.26,153.55,215.25,187.5Z"/></g></g><g id="R_upper_leg" data-name="R upper leg"><path class="cls-6" d="M297,120.5s-51-16-77.26-32.44c-.44,1.2-.91,2.53-1.42,4-4.91-7.67-10.66-16.8-16.61-26.58-10.85-17.82-22.38-37.8-30.73-55h0c25-15,62.5,8.5,76,40,3.19,7.46,49.51,30.72,50,42.88C297.57,107.7,297,120.5,297,120.5Z"/><g class="cls-5"><path d="M297,120.5s-51-16-77.26-32.44c-.44,1.2-.91,2.53-1.42,4-4.91-7.67-10.66-16.8-16.61-26.58.35-.26.7-.5,1.06-.74,9.92-6.58,22.92-7,34.41-3.9s21.82,9.38,32,15.57l27.84,17C297.57,107.7,297,120.5,297,120.5Z"/></g></g><g id="L_upper_leg" data-name="L upper leg"><path class="cls-3" d="M299,78.5l-18.85,34-5.57,8.57-.5.77L261.6,141l-.84,1.29-.55.84L256,149.59l-8.54,13.14-1.37,2.11c-39.47-23.05-64.88-56.06-69.92-69.12-9.21,23.07-13.73,56-15.73,75.55-1,9.85-1.38,16.27-1.38,16.27l-13.07,0-28.43,0a241.54,241.54,0,0,1-3.2-43c.73-59.22,21-117.11,43.63-137.33a36,36,0,0,1,7-4.95A24,24,0,0,1,167.85,1l.49-.18a19,19,0,0,1,3-.82c.34,0,6.74,0,6.62.48,12.16.33,25.88,5.36,39.94,13.55q2.22,1.29,4.45,2.69c1.19.75,2.39,1.5,3.58,2.27,3,1.9,6,3.86,8.92,5.87,21.56,14.56,42.3,31.49,53.63,46.38a3.32,3.32,0,0,0,.43.41C293.33,75.82,296.77,76.43,299,78.5Z"/><path class="cls-7" d="M381,91.38C379.23,138.31,364.32,191,319.3,189c-27.84-1.26-52.58-11.12-73.17-24.16l1.37-2.11c2.79-4.35,5.54-8.76,8.23-13.3l1.11-1.87,0-.07c.91-1.55,1.82-3.11,2.72-4.7l.45-.79c.4-.7.8-1.4,1.19-2.11,3.46-6.23,6.8-12.7,10-19.5l.51-1.08q2.75-5.93,5.32-12.2c1.13-2.78,2.24-5.61,3.32-8.51.09-.23.17-.46.26-.7,2.86-7.75,5.5-15.93,7.9-24.64.14-.52.29-1.06.43-1.59l.05-.17a132.59,132.59,0,0,0,43.9,17.33,154.09,154.09,0,0,0,20,2.75l.54,0,1.9.13c1.7.1,3.37.18,5,.23A182.81,182.81,0,0,0,381,91.38Z"/><g class="cls-5"><path d="M381,91.38C379.23,138.31,364.32,191,319.3,189c-27.84-1.26-52.58-11.12-73.17-24.16-39.47-23.05-64.88-56.06-69.92-69.12-9.21,23.07-13.73,56-15.73,75.55-1-2.39-2-4.82-2.91-7.27-.79-2.16-11.91,15.71-12.57,13.5-7.11-23.37,3-69.14,12.29-91.64,3.23-7.79,8.11-15.61,15.93-18.73,7.17-2.85,15.35-1.15,22.54,1.64,28.35,11,49.19,37.77,75.45,51.62,1,.5,1.91,1,2.87,1.45a71.45,71.45,0,0,0,19.11,6.27A61.87,61.87,0,0,0,360.31,92,182.81,182.81,0,0,0,381,91.38Z"/></g><g class="cls-5"><path d="M234.89,24.88A14,14,0,0,1,232,25a35,35,0,0,1-8.55-2.16A358.28,358.28,0,0,0,167.21,8.67q-4.59-.76-9.18-1.4a36,36,0,0,1,7-4.95A24,24,0,0,1,167.85,1l.49-.18a19,19,0,0,1,3-.82c.34,0,6.74,0,6.62.48,12.16.33,25.88,5.36,39.94,13.55q2.22,1.29,4.45,2.69c1.19.75,2.39,1.5,3.58,2.27C228.94,20.91,231.93,22.87,234.89,24.88Z"/></g><g class="cls-4"><g class="cls-5"><path d="M151.2,194.38l-.43,3.12A20.89,20.89,0,0,1,151.2,194.38Z"/></g><path d="M166.58,17h-4.53a.38.38,0,0,0,0,.75h4.53a.38.38,0,0,0,0-.75Z"/><path d="M155.51,33.21h-1.2a.38.38,0,0,0-.38.37.39.39,0,0,0,.38.38h1.2a.38.38,0,0,0,.38-.38.38.38,0,0,0-.38-.37Z"/><path d="M148.28,49.68a.38.38,0,0,0,0-.75.38.38,0,0,0,0,.75Z"/><path d="M161.55,26.4a.38.38,0,0,0,0-.75.38.38,0,0,0,0,.75Z"/><path d="M164,29.27a7.62,7.62,0,0,1-2.62-.59.38.38,0,0,0-.46.26.37.37,0,0,0,.26.46A8.07,8.07,0,0,0,164,30a.38.38,0,1,0,0-.75Z"/><path d="M160.92,39.05l-1.81-1.51a.4.4,0,0,0-.53,0,.38.38,0,0,0,0,.53l1.81,1.51a.37.37,0,0,0,.53-.53Z"/><path d="M159.23,22.32l-2.44-.84a.37.37,0,0,0-.46.26.39.39,0,0,0,.26.46L159,23a.39.39,0,0,0,.47-.26.39.39,0,0,0-.27-.46Z"/><path d="M167.83,8.83A7.36,7.36,0,0,0,165,6.65a.37.37,0,0,0-.51.13.4.4,0,0,0,.13.52,6.92,6.92,0,0,1,2.64,2.06.37.37,0,0,0,.53-.53Z"/><path d="M146.41,35.15,144.89,34a.44.44,0,0,0-.27-.11.36.36,0,0,0-.26.11.37.37,0,0,0,0,.53l1.51,1.2a.39.39,0,0,0,.54,0,.39.39,0,0,0,0-.53Z"/><path d="M153,22.63l-.12,0c-.09,0,.06,0,0,0l-.21,0h-.41s0,0,0,0a3.34,3.34,0,0,1-.43-.1l-.1,0-.06,0h0l-.21-.11a.38.38,0,0,0-.51.14.37.37,0,0,0,.13.51,3.1,3.1,0,0,0,2.11.31.38.38,0,0,0-.2-.73Z"/><path d="M144.54,59.58l-2.73-1.48a.39.39,0,0,0-.52.14.38.38,0,0,0,.14.51l2.73,1.48a.38.38,0,1,0,.38-.65Z"/><path d="M149.73,83.69h-.55l-.1,0a1.31,1.31,0,0,1-.27-.06,1.34,1.34,0,0,1-.26-.09h0l-.13-.06-.23-.14-.12-.08s0,0,0,0a.1.1,0,0,1,0,0,.39.39,0,0,0-.53,0,.38.38,0,0,0,0,.53,3.15,3.15,0,0,0,2.47.71.38.38,0,0,0,.26-.47.39.39,0,0,0-.46-.26Z"/><path d="M158.82,93.13l7.86,2.41c.46.15.66-.58.2-.72L159,92.4c-.46-.14-.66.59-.2.73Z"/><path d="M160.13,106.48h4.23a.38.38,0,0,0,0-.75h-4.23a.38.38,0,0,0,0,.75Z"/><path d="M160.44,111.61h2.72a.38.38,0,0,0,0-.75h-2.72a.38.38,0,0,0-.37.38.38.38,0,0,0,.37.37Z"/><path d="M154.08,102.86a.38.38,0,0,0,0-.75.38.38,0,0,0,0,.75Z"/><path d="M149.57,117.37a.38.38,0,0,0,0-.75.38.38,0,0,0,0,.75Z"/><path d="M148.07,129.76a.38.38,0,0,0,0-.75.38.38,0,0,0,0,.75Z"/><path d="M155.6,108.3a.38.38,0,0,0,0-.75.38.38,0,0,0,0,.75Z"/><path d="M154.71,119.78a.38.38,0,0,0,0-.75.38.38,0,0,0,0,.75Z"/><path d="M152.6,128.57a25.56,25.56,0,0,0,6.14-1,.37.37,0,0,0-.2-.72,24.89,24.89,0,0,1-5.94,1c-.48,0-.48.77,0,.75Z"/><path d="M157.73,121.29h1.21a.4.4,0,0,0,.38-.38.38.38,0,0,0-.38-.37h-1.21a.38.38,0,0,0-.37.37.38.38,0,0,0,.37.38Z"/><path d="M151.75,139.62l.3.3a.25.25,0,0,0,.12.08.32.32,0,0,0,.14,0,.37.37,0,0,0,.15,0,.25.25,0,0,0,.12-.08l.06-.08a.41.41,0,0,0,.05-.19v-.1a.34.34,0,0,0-.1-.16l-.3-.3a.28.28,0,0,0-.12-.08.27.27,0,0,0-.15,0,.22.22,0,0,0-.14,0,.2.2,0,0,0-.12.08l-.06.07a.32.32,0,0,0-.05.19v.1a.42.42,0,0,0,.1.17Z"/><path d="M148.67,145.31l-.93,2.71a.37.37,0,0,0,.26.46.38.38,0,0,0,.46-.26l.93-2.71a.37.37,0,0,0-.26-.46.38.38,0,0,0-.46.26Z"/><path d="M140.85,152h-5.14a.38.38,0,0,0,0,.75h5.14a.38.38,0,0,0,0-.75Z"/><path d="M134.78,136.28h-2.11a.38.38,0,0,0-.38.37.39.39,0,0,0,.38.38h2.11a.38.38,0,1,0,0-.75Z"/><path d="M138.38,116.4a15.43,15.43,0,0,1-6.14-1.85c-.42-.24-.8.41-.38.64a16.29,16.29,0,0,0,6.52,2c.48,0,.48-.71,0-.75Z"/><path d="M128.12,124.5h-3a.38.38,0,0,0,0,.75h3a.38.38,0,0,0,0-.75Z"/><path d="M134.84,103.07l-.91-.3a.41.41,0,0,0-.29,0,.44.44,0,0,0-.17.23.38.38,0,0,0,.26.46l.91.31a.37.37,0,0,0,.29,0,.44.44,0,0,0,.17-.23.38.38,0,0,0-.26-.46Z"/><path d="M133.42,91l-.38-.2-.09-.06s-.12-.1,0,0l-.16-.14-.15-.15-.06-.08,0,0s.05.07,0,0a3.17,3.17,0,0,1-.23-.36.37.37,0,1,0-.64.38,2.83,2.83,0,0,0,1.39,1.3.41.41,0,0,0,.29,0,.38.38,0,0,0,.26-.46.35.35,0,0,0-.17-.22Z"/><path d="M144.53,98.32A6.37,6.37,0,0,1,141,96.61c-.35-.34-.88.19-.53.53a7.17,7.17,0,0,0,4.09,1.93.38.38,0,1,0,0-.75Z"/><path d="M138.94,84.5h-1.72a.38.38,0,0,0-.37.37.38.38,0,0,0,.37.38h1.72a.37.37,0,0,0,.37-.37.38.38,0,0,0-.37-.38Z"/><path d="M131.55,80.26a2.33,2.33,0,0,0-1-2.56.38.38,0,0,0-.51.14.39.39,0,0,0,.14.51l.12.08h0s0,0,0,0a1.26,1.26,0,0,1,.2.2s.06.08,0,0,0,0,0,0l.08.12a.75.75,0,0,1,.07.12l0,.07c0,.07,0,0,0,0l.09.27s0,.09,0,.13,0-.07,0,0,0,0,0,.07a1.41,1.41,0,0,1,0,.29s0,.09,0,0,0,0,0,0a.83.83,0,0,1,0,.15.38.38,0,0,0,.26.46.39.39,0,0,0,.47-.26Z"/><path d="M134.39,75.11l-2.58-1.71a.38.38,0,0,0-.51.13.39.39,0,0,0,.14.52L134,75.76a.4.4,0,0,0,.52-.13.39.39,0,0,0-.14-.52Z"/><path d="M134.18,66.18l-1.31-2.57a.37.37,0,1,0-.64.38l1.3,2.57a.38.38,0,1,0,.65-.38Z"/><path d="M137.13,52.24V49.66a.38.38,0,0,0-.38-.37.38.38,0,0,0-.37.37v2.58a.38.38,0,0,0,.37.38.38.38,0,0,0,.38-.38Z"/><path d="M141,44.83l-.46-2.57a.38.38,0,0,0-.46-.27.39.39,0,0,0-.26.47L140.3,45a.37.37,0,0,0,.46.26.38.38,0,0,0,.26-.46Z"/><path d="M125.22,104.71h-3.87a.38.38,0,0,0,0,.75h3.87a.38.38,0,0,0,0-.75Z"/><path d="M126.07,96.87a.38.38,0,0,0,0-.75.38.38,0,0,0,0,.75Z"/><path d="M126.91,85.27a.38.38,0,0,0,0-.75.38.38,0,0,0,0,.75Z"/><path d="M125,137l-2.14,2.58a.39.39,0,0,0,0,.53.37.37,0,0,0,.53,0l2.14-2.58a.39.39,0,0,0,0-.53.38.38,0,0,0-.53,0Z"/><path d="M141.14,127.77a.38.38,0,0,0,0-.75.38.38,0,0,0,0,.75Z"/><path d="M141.13,118.75a.38.38,0,0,0,0-.75.38.38,0,0,0,0,.75Z"/><path d="M142,111a.38.38,0,0,0,0-.75.38.38,0,0,0,0,.75Z"/><path d="M145,108a.38.38,0,0,0,0-.75.38.38,0,0,0,0,.75Z"/><path d="M145,117.14h-1.72a.38.38,0,0,0,0,.75H145a.38.38,0,1,0,0-.75Z"/><path d="M124.37,115.87h-2.14a.38.38,0,0,0-.38.37.39.39,0,0,0,.38.38h2.14a.38.38,0,0,0,.38-.37.39.39,0,0,0-.38-.38Z"/><path d="M123.53,132.62h-2.14a.38.38,0,0,0-.38.37.39.39,0,0,0,.38.38h2.14a.38.38,0,0,0,.38-.37.39.39,0,0,0-.38-.38Z"/><path d="M121.46,151.47l-.47,6c0,.48.71.48.75,0l.47-6c0-.48-.71-.48-.75,0Z"/><path d="M121.91,168.22v2.15a.39.39,0,0,0,.38.37.37.37,0,0,0,.37-.37v-2.15a.38.38,0,0,0-.37-.38.39.39,0,0,0-.38.38Z"/><path d="M131.74,175.45a.38.38,0,0,0,0-.75.38.38,0,0,0,0,.75Z"/><path d="M132.17,173.31a.38.38,0,0,0,0-.75.38.38,0,0,0,0,.75Z"/><path d="M133.44,155.7a.38.38,0,0,0,0-.75.38.38,0,0,0,0,.75Z"/><path d="M140.39,162.71l.43,1.72a.38.38,0,0,0,.46.26.37.37,0,0,0,.26-.46l-.43-1.72a.38.38,0,0,0-.46-.26.38.38,0,0,0-.26.46Z"/><path d="M134.77,161.65a11.79,11.79,0,0,0-.38,4.83.38.38,0,1,0,.75,0,11.33,11.33,0,0,1,.35-4.63.37.37,0,0,0-.72-.2Z"/><path d="M142.58,174.4a17.23,17.23,0,0,0,4.37,5.65c.37.31.9-.22.53-.53a16.65,16.65,0,0,1-4.25-5.5c-.21-.43-.86-.05-.65.38Z"/><path d="M151.49,170.69a4.83,4.83,0,0,1,4,1.63c.31.36.84-.17.53-.53a5.52,5.52,0,0,0-4.56-1.85c-.47,0-.48.79,0,.75Z"/><path d="M137.29,140.77H136a.38.38,0,0,0-.38.37.39.39,0,0,0,.38.38h1.29a.38.38,0,0,0,0-.75Z"/><path d="M124.08,181.2a2.85,2.85,0,0,1,0,.61.17.17,0,0,0,0,.07s0,.06,0,0l0,.17a2,2,0,0,1-.09.33.88.88,0,0,1,0,.15s0,0,0,0l0,.08a2.69,2.69,0,0,1-.16.29,2,2,0,0,1-.4.48.37.37,0,1,0,.53.53,3.21,3.21,0,0,0,.94-2.94.37.37,0,0,0-.46-.26.38.38,0,0,0-.26.46Z"/><path d="M137.44,183.18a9.5,9.5,0,0,1,4.1.38c.46.14.66-.58.2-.73a10.24,10.24,0,0,0-4.5-.37.37.37,0,0,0-.26.46.38.38,0,0,0,.46.26Z"/><path d="M153.2,157.82h3.86a.38.38,0,0,0,0-.75H153.2a.38.38,0,0,0,0,.75Z"/><path d="M158.76,144.07h.86a.39.39,0,0,0,.27-.11.44.44,0,0,0,.11-.27.38.38,0,0,0-.38-.37h-.86a.38.38,0,0,0-.26.11.37.37,0,0,0-.11.27.38.38,0,0,0,.37.37Z"/><path d="M155.23,66.12a2.8,2.8,0,0,1-2.54-3,.4.4,0,0,0-.26-.47.39.39,0,0,0-.46.27,3.54,3.54,0,0,0,3.26,4c.49,0,.49-.73,0-.75Z"/><path d="M156.31,51.44c-.49-1.94-1.17-3.81-1.66-5.74a.37.37,0,0,0-.72.2c.48,1.93,1.17,3.8,1.65,5.74a.38.38,0,0,0,.73-.2Z"/><path d="M169,83.5h2.15a.38.38,0,0,0,0-.75H169a.37.37,0,0,0-.37.38.38.38,0,0,0,.37.37Z"/><path d="M160.73,74.6a7.76,7.76,0,0,1-3.67-.4.38.38,0,0,0-.46.26.39.39,0,0,0,.26.47,8.79,8.79,0,0,0,4.07.4.38.38,0,0,0,.26-.46.39.39,0,0,0-.46-.27Z"/></g><g class="cls-4"><path d="M178.86,9.29h-3.33a.38.38,0,0,0,0,.75h3.33a.38.38,0,0,0,0-.75Z"/><path d="M175.53,16.69a.38.38,0,0,0,0-.75.38.38,0,0,0,0,.75Z"/><path d="M174.33,28.63H174a.23.23,0,0,0-.14,0,.24.24,0,0,0-.12.07.42.42,0,0,0-.08.12.4.4,0,0,0,0,.15v.1a.34.34,0,0,0,.1.16l.07.06a.34.34,0,0,0,.19.05h.31a.17.17,0,0,0,.14,0,.2.2,0,0,0,.12-.08.25.25,0,0,0,.08-.12.32.32,0,0,0,0-.14v-.1a.42.42,0,0,0-.1-.17l-.07,0a.35.35,0,0,0-.19-.06Z"/><path d="M171.73,52.12h6a.38.38,0,0,0,0-.75h-6a.38.38,0,0,0,0,.75Z"/><path d="M172.45,62.86H178a.38.38,0,0,0,0-.75h-5.58a.38.38,0,0,0,0,.75Z"/><path d="M174.84,77.48a6.93,6.93,0,0,1,3.69.34.38.38,0,0,0,.2-.73,7.8,7.8,0,0,0-4.09-.33.37.37,0,1,0,.2.72Z"/><path d="M185.67,83l2.15.43a.37.37,0,1,0,.2-.72l-2.15-.43a.38.38,0,0,0-.46.26.37.37,0,0,0,.26.46Z"/><path d="M188.85,92.45a7,7,0,0,0,5.08,2.6c.48,0,.48-.72,0-.75a6.28,6.28,0,0,1-4.54-2.38.39.39,0,0,0-.54,0,.4.4,0,0,0,0,.53Z"/><path d="M192.29,104.06l3.87,4.29c.32.36.85-.17.53-.53l-3.87-4.29c-.32-.36-.85.17-.53.53Z"/><path d="M204.59,110.41l4.29.9c.47.1.67-.62.19-.72l-4.28-.9c-.47-.1-.67.62-.2.72Z"/><path d="M210.25,81.33h6.87a.38.38,0,0,0,0-.75h-6.87a.38.38,0,0,0,0,.75Z"/><path d="M204.42,50.71c.43.48.87,1,1.29,1.45l.38.45a1.83,1.83,0,0,0,.13.16l.06.07,0,0c.33.44.66.88,1,1.3s.94,1.06,1.41,1.58c.33.36.86-.17.54-.53s-.88-.95-1.3-1.44l-.38-.45a1.83,1.83,0,0,0-.13-.16l-.06-.08,0,0c-.33-.43-.66-.88-1-1.3s-.94-1.06-1.41-1.58c-.33-.35-.86.18-.53.53Z"/><path d="M195,32.32a9.81,9.81,0,0,1,4.16,3.73c.25.41.9,0,.65-.38a10.56,10.56,0,0,0-4.43-4,.4.4,0,0,0-.52.14.38.38,0,0,0,.14.51Z"/><path d="M193,44a25.7,25.7,0,0,1,2.35,1.17,8,8,0,0,0,2.59.71.39.39,0,0,0,.46-.26.37.37,0,0,0-.26-.46,7.42,7.42,0,0,1-2.48-.68,24.31,24.31,0,0,0-2.46-1.2.37.37,0,0,0-.46.26A.38.38,0,0,0,193,44Z"/><path d="M207.91,28.88l6,2.58a.39.39,0,0,0,.51-.14.38.38,0,0,0-.14-.51l-6-2.58a.38.38,0,0,0-.51.14.37.37,0,0,0,.13.51Z"/><path d="M226.7,37.75,228,39.46a.4.4,0,0,0,.52.14.39.39,0,0,0,.13-.52l-1.29-1.71a.36.36,0,0,0-.23-.17.35.35,0,0,0-.28,0,.39.39,0,0,0-.14.52Z"/><path d="M237,56.74a21.37,21.37,0,0,0,1.72,1.43l.34.23.2.14.06.05h0l.17.14c.41.33.81.68,1.2,1s.9-.21.54-.53a21.37,21.37,0,0,0-1.72-1.43l-.34-.23-.2-.14-.06,0s.05,0,0,0l-.17-.14c-.41-.33-.8-.68-1.2-1s-.89.21-.53.53Z"/><path d="M245.21,72.62l5.12,5.19c.33.35.86-.18.53-.53l-5.12-5.19c-.34-.35-.87.18-.53.53Z"/><path d="M244,83.45,247.41,86a.39.39,0,0,0,.52-.14.38.38,0,0,0-.14-.51l-3.44-2.57a.37.37,0,0,0-.51.13.39.39,0,0,0,.13.52Z"/><path d="M236.25,92l4.29,2.59c.41.25.79-.4.37-.65l-4.28-2.58a.37.37,0,0,0-.38.64Z"/><path d="M217.28,89.81c.86.75,1.65,1.58,2.55,2.29a15.49,15.49,0,0,0,3,1.72c.43.21.81-.43.38-.65a15.22,15.22,0,0,1-2.87-1.63c-.88-.7-1.66-1.52-2.51-2.26-.36-.32-.89.21-.53.53Z"/><path d="M226.86,72.61l2.58,1.71a.38.38,0,1,0,.38-.65L227.24,72a.38.38,0,0,0-.51.13.4.4,0,0,0,.13.52Z"/><path d="M200.54,63.18l1.71,1.72a.37.37,0,0,0,.53-.53l-1.71-1.72a.37.37,0,0,0-.53.53Z"/><path d="M194.56,67.59l1.71,1.3a.35.35,0,0,0,.28,0,.37.37,0,0,0,.09-.69l-1.7-1.3a.37.37,0,0,0-.29,0,.44.44,0,0,0-.23.17.4.4,0,0,0,.14.52Z"/><path d="M207.24,71.88h2.15a.38.38,0,1,0,0-.75h-2.15a.38.38,0,0,0,0,.75Z"/><path d="M185.77,45.36h-1.29a.38.38,0,0,0,0,.75h1.29a.37.37,0,0,0,.37-.37.38.38,0,0,0-.37-.38Z"/><path d="M180.19,37.09a.38.38,0,0,0,0-.75.38.38,0,0,0,0,.75Z"/><path d="M180.33,36.05l-2.56-1.32a.38.38,0,0,0-.51.13.39.39,0,0,0,.13.52L180,36.7a.38.38,0,0,0,.38-.65Z"/><path d="M183.37,21.82l-2.16-1.28a.37.37,0,0,0-.51.13.38.38,0,0,0,.14.51L183,22.46a.37.37,0,0,0,.38-.64Z"/><path d="M192.48,22.71l-2.15-2.15a.37.37,0,1,0-.53.53L192,23.24a.38.38,0,0,0,.53,0,.4.4,0,0,0,0-.53Z"/><path d="M196.94,17.34a.38.38,0,0,0,0-.75.38.38,0,0,0,0,.75Z"/><path d="M217.12,44.82h.43a.22.22,0,0,0,.14,0,.26.26,0,0,0,.13-.08.24.24,0,0,0,.07-.12.23.23,0,0,0,0-.14.44.44,0,0,0-.11-.27.46.46,0,0,0-.27-.11h-.43a.23.23,0,0,0-.14,0,.24.24,0,0,0-.12.07.28.28,0,0,0-.08.12.21.21,0,0,0,0,.15.31.31,0,0,0,.11.26.36.36,0,0,0,.26.11Z"/><path d="M212.28,21a3.23,3.23,0,0,1-2.85-1c-.34-.35-.87.18-.54.53a4,4,0,0,0,3.59,1.16.37.37,0,0,0,.26-.46.38.38,0,0,0-.46-.26Z"/><path d="M225.79,53.69h-1.61a.38.38,0,0,0-.38.38.38.38,0,0,0,.38.37h1.61a.38.38,0,0,0,0-.75Z"/><path d="M227.93,108.94h-3.22a.38.38,0,0,0,0,.75h3.22a.38.38,0,0,0,0-.75Z"/><path d="M219.89,126.1h-2.15a.38.38,0,0,0,0,.75h2.15a.38.38,0,0,0,0-.75Z"/><path d="M204.27,122.23c-2.27-2-4.35-4.22-6.61-6.25-.36-.32-.89.21-.53.53,2.26,2,4.34,4.23,6.6,6.25.36.32.9-.2.54-.53Z"/><path d="M231.05,141.66a3.27,3.27,0,0,1-2.85-1c-.34-.35-.87.18-.53.53a4,4,0,0,0,3.58,1.16.37.37,0,1,0-.2-.72Z"/><path d="M243.53,134.83a28.39,28.39,0,0,1-5.67-2.91c-.4-.27-.78.38-.37.65a29.52,29.52,0,0,0,5.84,3c.46.17.65-.56.2-.73Z"/><path d="M259.12,127.22a28.92,28.92,0,0,1-8.45-5.25c-.36-.32-.89.21-.53.53a30.18,30.18,0,0,0,8.79,5.45c.44.18.64-.55.19-.73Z"/><path d="M261.72,101.43H259a.38.38,0,0,0-.37.37.38.38,0,0,0,.37.38h2.68a.39.39,0,0,0,.38-.38.38.38,0,0,0-.38-.37Z"/><path d="M236.51,112.9a.38.38,0,0,0,0-.75.38.38,0,0,0,0,.75Z"/><path d="M248.47,108l-1.07-.54a.35.35,0,0,0-.28,0,.36.36,0,0,0-.23.17.39.39,0,0,0,.14.52l1.06.54a.37.37,0,0,0,.29,0,.44.44,0,0,0,.23-.17.39.39,0,0,0-.14-.52Z"/><path d="M260.2,116.53a13,13,0,0,1-5.65-2.74c-.37-.3-.91.22-.54.53a13.92,13.92,0,0,0,6,2.94c.47.1.67-.63.2-.73Z"/><path d="M266.55,87.48h-4.29a.38.38,0,0,0,0,.75h4.29a.38.38,0,0,0,0-.75Z"/><path d="M253.13,55.41a5.83,5.83,0,0,1-3.91-2.23.38.38,0,0,0-.53,0,.39.39,0,0,0,0,.53,6.55,6.55,0,0,0,4.44,2.45c.2,0,.37-.19.37-.37a.39.39,0,0,0-.37-.38Z"/><path d="M240.27,40.33a5.28,5.28,0,0,1-4.45-2,.38.38,0,0,0-.51-.13.38.38,0,0,0-.14.51,6.07,6.07,0,0,0,5.1,2.42c.48,0,.48-.78,0-.75Z"/><path d="M240.27,149.23a12,12,0,0,1-2.67-3A28.2,28.2,0,0,1,236,142.4c-.17-.44-.9-.25-.72.2a28.37,28.37,0,0,0,1.72,4,12.46,12.46,0,0,0,2.77,3.2c.37.32.9-.21.54-.53Z"/><path d="M236.57,124.08,233.9,123a.37.37,0,0,0-.46.26.38.38,0,0,0,.26.46l2.67,1.1a.37.37,0,0,0,.46-.26.39.39,0,0,0-.26-.46Z"/><path d="M253.14,139.72a.38.38,0,0,0,0-.75.38.38,0,0,0,0,.75Z"/><path d="M269.23,110.76a.38.38,0,0,0,0-.75.38.38,0,0,0,0,.75Z"/></g></g><g id="front_boat" data-name="front boat"><path class="cls-8" d="M402.06,147.73l-9.21,54.13-7.72,45.36s-264.37,64.5-358.84-72.71C14.7,157.7,5.68,137.86,0,114.5c118.83,13.53,247,48,375,27,4.64-.76,15.78,0,23,.77A4.66,4.66,0,0,1,402.06,147.73Z"/><g class="cls-5"><path d="M150.77,197.5a20.89,20.89,0,0,1,.43-3.12Z"/></g><path class="cls-9" d="M392.85,201.86l-7.72,45.36s-264.37,64.5-358.84-72.71c9.09-.5,27.94,12.6,36.71,16,56,21.64,104.82,31.13,164.57,37.37C283.8,233.73,342.54,227.29,392.85,201.86Z"/></g><g class="cls-10"><path class="cls-11" d="M83.06,130.37l-3.5-.59L78,133.83l-3-.51c.47-1.32,1-2.64,1.42-3.95q-1.65-.27-3.3-.51-1.89,5.7-3.77,11.5l2.94.54c.43-1.2.85-2.4,1.28-3.59l2.91.52c-.46,1.19-.93,2.39-1.39,3.6l3.1.58m-10.56-9.77,2.76.43c.42-1.35.85-2.69,1.27-4-2.88-.43-5.77-.83-8.65-1.19l-1,4,2.62.38q-1,3.68-1.94,7.37l2.76.49m-3.81-12.37c-1-.12-2-.25-3-.36L56,130.85c-.34-1.45-.67-2.89-1-4.33l-2.85-.29-1.68,10.9,2.44.39c.31-1.75.61-3.49.92-5.24.37,1.37.73,2.75,1.1,4.12l2.61-3.6c-.36,1.76-.73,3.53-1.09,5.29l2.59.44M50.84,126l-2.65-.23q-.45,3.74-.92,7.46l-3.36-.41c-.1,1.09-.21,2.19-.31,3.28,1.89.27,3.78.54,5.67.83"/><path class="cls-11" d="M61.7,182.72c6.36-11.86,12.72-23.79,19.07-35.13-13.55-2.74-27.13-5.54-40.68-7.74Q40,157,39.9,174.17q4.86,3.39,9.71,6.75"/><path class="cls-12" d="M68.28,155.7q-6-1.47-12.1-3l-1.17,5,6.21,1.72L59.42,164l-5.49-1.61c-.32,1.38-.65,2.76-1,4.13,3,1,6,1.92,9.07,2.84m-.82,1.92L57.13,170c-.37,1-.75,1.89-1.12,2.84l-4.42-.4-.81,3.43c2.65.31,5.31.59,8,.86"/><path class="cls-12" d="M45.33,150.15l10.85,2.58-1.17,5-9.92-2.66m-.23,4.63,9.07,2.68c-.32,1.38-.65,2.76-1,4.13L48.27,165,47.82,170l3.76,2.45c-.26,1.15-.53,2.29-.8,3.43l-6.55-4.43"/></g></g></g></g></g></svg>