<svg xmlns="http://www.w3.org/2000/svg" viewBox="0 0 24 46"><defs><style>.cls-1{isolation:isolate;}.cls-2{fill:#ccc;}.cls-3{mix-blend-mode:soft-light;}</style></defs><title>propeller</title><g class="cls-1"><g id="Layer_2" data-name="Layer 2"><g id="man"><g id="Motor"><g id="Propeller"><path class="cls-2" d="M24,23a36.7,36.7,0,0,1-3,15.18C18.82,43,15.58,46,12,46,5.38,46,0,35.7,0,23,0,12.7,3.54,4,8.4,1.06A6.79,6.79,0,0,1,12,0C18.62,0,24,10.3,24,23Z"/><g class="cls-3"><path d="M24,23a36.7,36.7,0,0,1-3,15.18A12.21,12.21,0,0,1,13.38,27a42.89,42.89,0,0,1,.68-5.52A28.89,28.89,0,0,0,8.4,1.06,6.79,6.79,0,0,1,12,0C18.62,0,24,10.3,24,23Z"/></g></g></g></g></g></g></svg>