<svg xmlns="http://www.w3.org/2000/svg" viewBox="0 0 102.72 33.92"><defs><style>.cls-1{isolation:isolate;}.cls-2{fill:#edc3a6;}.cls-3{mix-blend-mode:soft-light;}</style></defs><title>r-arm</title><g class="cls-1"><g id="Layer_2" data-name="Layer 2"><g id="man"><g id="R_arm" data-name="R arm"><path class="cls-2" d="M102.72,24.67c-.62.48-1.23.94-1.85,1.38a66.73,66.73,0,0,1-8.7,5.27C78.82,33.8,39.65,33.11,28.6,28c-.2-.1-7.17-3.44-17.08,2.93a19.88,19.88,0,0,1-6,2.83c-13.38,3.08-.6-29.39,21-21.26C26.5,12.46,75.72-2,86.07.24L91.38,8l.84,1.23Z"/><g class="cls-3"><path d="M102.72,24.67c-.62.48-1.23.94-1.85,1.38a66.73,66.73,0,0,1-8.7,5.27C78.82,33.8,39.65,33.11,28.6,28c-.2-.1-7.17-3.44-17.08,2.93a19.88,19.88,0,0,1-6,2.83,11,11,0,0,1,0-1.81c.58-6.31,6.56-11,12.73-12.44s12.61-.54,18.94-.25c18.78.87,37.14-3.84,55.06-10Z"/></g></g></g></g></g></svg>