<svg xmlns="http://www.w3.org/2000/svg" xmlns:xlink="http://www.w3.org/1999/xlink" viewBox="0 0 128.96 278.61"><defs><style>.cls-1{isolation:isolate;}.cls-2{fill:url(#linear-gradient);}.cls-3,.cls-5{mix-blend-mode:soft-light;}.cls-4{fill:url(#linear-gradient-2);}.cls-5{opacity:0.71;}.cls-6{fill:url(#linear-gradient-3);}.cls-7{fill:url(#linear-gradient-4);}.cls-8{fill:url(#linear-gradient-5);}.cls-9{fill:#0078c1;}</style><linearGradient id="linear-gradient" x1="39.41" y1="44.47" x2="-3.47" y2="51.47" gradientUnits="userSpaceOnUse"><stop offset="0" stop-color="#edc3a6"/><stop offset="0.21" stop-color="#f4d3bc"/><stop offset="0.52" stop-color="#ffebdc"/></linearGradient><linearGradient id="linear-gradient-2" x1="29.22" y1="23.56" x2="-12.13" y2="37.59" xlink:href="#linear-gradient"/><linearGradient id="linear-gradient-3" x1="14.78" y1="13.7" x2="37.35" y2="13.7" gradientUnits="userSpaceOnUse"><stop offset="0" stop-color="#611e00"/><stop offset="1" stop-color="#320000"/></linearGradient><linearGradient id="linear-gradient-4" x1="38.48" y1="1.35" x2="35.26" y2="13.08" xlink:href="#linear-gradient-3"/><linearGradient id="linear-gradient-5" x1="137.86" y1="173.45" x2="2.84" y2="155.02" gradientUnits="userSpaceOnUse"><stop offset="0" stop-color="#f0f0f0"/><stop offset="1" stop-color="#fff"/></linearGradient></defs><title>torso</title><g class="cls-1"><g id="Layer_2" data-name="Layer 2"><g id="man"><g id="Torso"><g id="Head"><path class="cls-2" d="M30,59.27c-4.14-3.57-2.71-15.5-6.07-18a18.25,18.25,0,0,1,4.22-4.68A31.15,31.15,0,0,1,39,31.27S46.7,42,52,51.27"/><g class="cls-3"><path d="M42,55.27c1.86-1.77.78-9.63-.17-12-.73-1.83-2.36-3.56-4.32-3.44-1.38.09-2.52,1.06-3.83,1.51a5.25,5.25,0,0,1-4.77-.79l.52.15a13.08,13.08,0,0,1-1.28-4.09A31.15,31.15,0,0,1,39,31.27S46.7,42,52,51.27"/></g><path class="cls-4" d="M40,36.27a14.33,14.33,0,0,1-13.24,6.39,8.6,8.6,0,0,1-1.78-.41c-2.71-2.3-5.61-6.45-8.48-13.48a34,34,0,0,1-2-11.51,14.08,14.08,0,0,1,.72-4,9.64,9.64,0,0,1,1.24-2.46,12.31,12.31,0,0,1,8-5,7.55,7.55,0,0,1,6.77,2.32,21,21,0,0,1,4.7,8.76c.18.6.35,1.21.51,1.84,0,0,0,0,0,.08C38.21,24.32,40.63,29.55,40,36.27Z"/><g class="cls-5"><path d="M40,36.27a14.33,14.33,0,0,1-13.24,6.39,24.78,24.78,0,0,0,4.47-3,11,11,0,0,0,1.95-2,11.34,11.34,0,0,0,1.18-2.33c.86-2.2,1.39-4.74.4-6.89-1.09-2.32-3.64-3.54-6.06-4.37a31.22,31.22,0,0,1-4.14-1.57,7.37,7.37,0,0,1-3.24-2.93,1,1,0,0,1-.16-.59,1,1,0,0,1,.31-.49A12.17,12.17,0,0,1,27,15.8a12.72,12.72,0,0,1,4.27-.6,12.74,12.74,0,0,1,4.68,1.65c.18.6.35,1.21.51,1.84,0,0,0,0,0,.08C38.21,24.32,40.63,29.55,40,36.27Z"/></g><path class="cls-6" d="M37,21.27c-2.73,1.36-7.32,1-11.62-.07h0c-5.15-1.27-9.85-3.52-10.37-4.93-.82-2.24,1.15-6.74,5.22-9.19a10.91,10.91,0,0,1,2.06-1C33.12,3.06,39,8.27,37,21.27Z"/><g class="cls-3"><path d="M37,21.27c-2.73,1.36-7.32,1-11.62-.07a1.7,1.7,0,0,1,.35-.14,10.15,10.15,0,0,1,1.91-.21,6.27,6.27,0,0,0,5-3.6A6.26,6.26,0,0,0,32,11.11a10.54,10.54,0,0,0-4.63-3.18,16.53,16.53,0,0,0-2.18-.76,11.08,11.08,0,0,0-5-.09,10.91,10.91,0,0,1,2.06-1C33.12,3.06,39,8.27,37,21.27Z"/></g><path class="cls-7" d="M34.65.38a6.66,6.66,0,0,1,8.41,4l.06.14a.88.88,0,0,1,.05.15A7,7,0,0,1,39,13.27a9.49,9.49,0,0,0-1.45-5,9.88,9.88,0,0,0-1.74-2.1A8.39,8.39,0,0,0,31,3.9,6.29,6.29,0,0,1,34.65.38"/><g class="cls-3"><path d="M39,13.27a9.49,9.49,0,0,0-1.45-5,9.88,9.88,0,0,0-1.74-2.1l1.08.23a5,5,0,0,0,2.06.16,5,5,0,0,0,1.72-.83,9.87,9.87,0,0,1,2.43-1.31l.06.14a.88.88,0,0,1,.05.15A7,7,0,0,1,39,13.27Z"/></g></g><g id="Torso-2" data-name="Torso"><path class="cls-8" d="M127.56,245.85q1.26-12.65,1.38-24.55c0-1.45,0-2.89,0-4.32,0-.61,0-1.22,0-1.82l0-2.31q-.07-4.14-.29-8.18-.17-3.13-.4-6.2l-.09-1.11c-.1-1.41-.22-2.8-.36-4.19q-.27-2.82-.61-5.59c-.24-2.11-.52-4.2-.82-6.26-.18-1.25-.37-2.5-.58-3.73-.22-1.42-.46-2.83-.71-4.22-.21-1.15-.42-2.28-.64-3.41q-.61-3.18-1.32-6.3c-.42-1.87-.85-3.73-1.31-5.56-.35-1.39-.7-2.77-1.08-4.13-.19-.76-.4-1.51-.61-2.25q-.9-3.19-1.87-6.31c-.62-2-1.27-4-2-5.95-.45-1.34-.92-2.67-1.4-4q-.5-1.35-1-2.67-1.18-3.15-2.45-6.2-1-2.41-2.05-4.76c-.55-1.26-1.11-2.5-1.69-3.72q-1.11-2.4-2.27-4.73c-1-2-2-4-3.07-5.94l-1.2-2.2c-.66-1.19-1.32-2.36-2-3.52-1.52-2.62-3.09-5.17-4.67-7.63q-1.5-2.34-3-4.57l-.63-.91c-.56-.81-1.12-1.6-1.69-2.39-2.54-3.55-5.13-6.9-7.74-10-.45-.54-.9-1.08-1.36-1.61-.9-1.06-1.81-2.1-2.72-3.11l-.17-.19c-3.3-3.67-6.62-7-9.89-10l-.8-.73c-1.13-1-2.27-2-3.39-2.94l-.68-.56a95.63,95.63,0,0,0-11.62-8.29,21,21,0,0,1-4.49,3.71,24.3,24.3,0,0,1-8.82,3.28l-.22,0a29.39,29.39,0,0,1-9.36,0,79.24,79.24,0,0,1-1.51,8.84s0,0,0,0c-.28,1.32-.6,2.69-.94,4.12-.15.6-.3,1.21-.46,1.83-.66,2.63-1.41,5.42-2.23,8.34l-.24.86c-.37,1.31-.75,2.65-1.15,4l-.3,1q-1.17,4.05-2.45,8.36l-.42,1.44c-.37,1.23-.73,2.47-1.1,3.73-.06.21-.13.42-.19.63-.83,2.81-1.67,5.68-2.51,8.59-.12.41-.24.82-.35,1.23-.38,1.28-.75,2.57-1.12,3.87l-.21.72c-.79,2.8-1.58,5.64-2.36,8.5l-.24.88c-.35,1.3-.7,2.61-1,3.93l-.27,1c-.74,2.83-1.45,5.68-2.13,8.52,0,.16-.08.31-.11.47-.32,1.33-.63,2.66-.92,4-.11.47-.22.93-.32,1.4C4.64,145,4,147.93,3.49,150.8-8.72,224.22,32.57,269.66,73,277.27,97.19,281.85,127.81,275.52,127.56,245.85Z"/><path class="cls-9" d="M.85,194.79q7,2.58,14.32,4.93C54.3,212.31,94.39,218,119.8,214.62a72.22,72.22,0,0,0,9.11-1.77l0,2.31c0,.6,0,1.21,0,1.82a79.51,79.51,0,0,1-8.62,1.61,125.31,125.31,0,0,1-16.52,1c-25.09,0-57.84-5.74-89.87-16.05-4.14-1.33-8.22-2.73-12.23-4.17"/><path class="cls-9" d="M0,179.52C39.83,193.86,83.84,201,112.7,197a60.53,60.53,0,0,0,15.07-3.81c.14,1.39.26,2.78.36,4.19a67.78,67.78,0,0,1-14.89,3.58,130.56,130.56,0,0,1-17.79,1.11c-23.46,0-52.8-4.89-82.12-13.92Q6.5,186,0,183.73"/><path class="cls-9" d="M1.21,165q6.15,2.12,12.59,4c33.87,9.9,68.13,13.82,91.66,10.48,8.29-1.18,14.89-3.23,19.59-6,.25,1.39.49,2.8.71,4.22q-7.53,4-19.73,5.79a137,137,0,0,1-19,1.22C61.42,184.6,29.89,178.93.73,169"/><path class="cls-9" d="M3.49,150.8q4.68,1.47,9.57,2.81c30.9,8.51,62.68,11.63,85,8.35,10.09-1.49,17.75-4.21,22.63-8,.38,1.36.73,2.74,1.08,4.13-5.46,3.71-13.25,6.36-23.12,7.81a139.23,139.23,0,0,1-20.17,1.34c-22.94,0-50.29-4.42-75.75-12.41"/><path class="cls-9" d="M116.27,139.46c-5.66,4.34-14.17,7.44-25.18,9.11A141,141,0,0,1,70,150a243.63,243.63,0,0,1-58.69-7.8q-2.86-.73-5.65-1.51c.29-1.33.6-2.66.92-4,29.27,8.26,61.23,11.35,83.95,7.89,11.12-1.69,19.39-4.81,24.38-9.15C115.35,136.79,115.82,138.12,116.27,139.46Z"/><path class="cls-9" d="M109.38,121.84c-5.87,4.49-14.69,7.74-26.09,9.56A145.83,145.83,0,0,1,60.65,133a225.45,225.45,0,0,1-50.16-6l-1.44-.35c.34-1.32.69-2.63,1-3.93,25.19,6.06,52.34,7.88,72.57,4.66,11.3-1.8,19.78-5,25-9.33C108.27,119.34,108.83,120.58,109.38,121.84Z"/><path class="cls-9" d="M101.15,105.25c-6.12,4.23-14.88,7.35-26,9.2a149.93,149.93,0,0,1-24.47,1.86,204.8,204.8,0,0,1-37.81-3.62c.37-1.3.74-2.59,1.12-3.87,21.07,4,42.93,4.62,60.5,1.68,10.6-1.77,19-4.78,24.63-8.77C99.83,102.89,100.49,104.06,101.15,105.25Z"/><path class="cls-9" d="M91.46,89.53c-5.59,3.3-13.52,6.28-24.77,8.27a149.68,149.68,0,0,1-25.88,2.11,184.66,184.66,0,0,1-23.74-1.54c.37-1.26.73-2.5,1.1-3.73A158.92,158.92,0,0,0,66,93.86c9.5-1.68,17.33-4.29,23.14-7.63.57.79,1.13,1.58,1.69,2.39Z"/><path class="cls-9" d="M80,74.58a89.12,89.12,0,0,1-22.29,7A150.05,150.05,0,0,1,30.14,84c-2.93,0-5.87-.08-8.8-.23.4-1.37.78-2.71,1.15-4A150.65,150.65,0,0,0,57,77.64a87.81,87.81,0,0,0,20.32-6.17C78.23,72.48,79.14,73.52,80,74.58Z"/><path class="cls-9" d="M66.46,60.56a105.22,105.22,0,0,1-18.17,5.38,141.06,141.06,0,0,1-22.87,2.81c.34-1.43.66-2.8.94-4.12A135.55,135.55,0,0,0,47.48,62a105.25,105.25,0,0,0,15.59-4.4C64.19,58.56,65.33,59.54,66.46,60.56Z"/><g class="cls-3"><path d="M38.64,238.15c-5.53-4-10.68-9.63-11-16.45s4.25-12.7,9.25-17.21,10.77-8.37,14.45-14c7.66-11.74,4-27.11,2.23-41-2.39-18.44-9.72-38-3.84-55.62C54,81.27,50,72.27,45.26,61c-1.1-2.62.39-5.73,1-8.55a21,21,0,0,0,4.49-3.71,95.63,95.63,0,0,1,11.62,8.29l.68.56c1.12.94,2.26,1.92,3.39,2.94l.8.73c3.27,3,6.59,6.32,9.89,10l.17.19c.91,1,1.82,2,2.72,3.11.46.53.91,1.07,1.36,1.61,2.61,3.14,5.2,6.49,7.74,10,.57.79,1.13,1.58,1.69,2.39l.63.91q1.52,2.23,3,4.57c1.58,2.46,3.15,5,4.67,7.63.68,1.16,1.34,2.33,2,3.52l1.2,2.2c1,1.94,2.07,3.92,3.07,5.94q1.15,2.33,2.27,4.73c.58,1.22,1.14,2.46,1.69,3.72q1.05,2.34,2.05,4.76,1.26,3,2.45,6.2.5,1.32,1,2.67c.48,1.32.95,2.65,1.4,4,.68,1.95,1.33,3.94,2,5.95s1.27,4.18,1.87,6.31c.21.74.42,1.49.61,2.25.38,1.36.73,2.74,1.08,4.13.46,1.83.89,3.69,1.31,5.56q.7,3.12,1.32,6.3c.22,1.13.43,2.26.64,3.41.25,1.39.49,2.8.71,4.22.21,1.23.4,2.48.58,3.73.3,2.06.58,4.15.82,6.26q.34,2.78.61,5.59c.14,1.39.26,2.78.36,4.19l.09,1.11q.24,3.06.4,6.2.21,4,.29,8.18l0,2.31c0,.6,0,1.21,0,1.82,0,1.43,0,2.87,0,4.32q-.13,11.91-1.38,24.55"/></g></g></g></g></g></g></svg>